<svg
  xmlns="http://www.w3.org/2000/svg"
  version="1.1"
  xmlns:xlink="http://www.w3.org/1999/xlink"
  xmlns:svgjs="http://svgjs.com/svgjs"
  width="1479"
  height="1200"
  preserveAspectRatio="none"
  viewBox="0 0 1479 1200"
  style="transform:rotate(180deg)"
><g mask="url(&quot;#SvgjsMask1181&quot;)" fill="none"><path
      d="M 0,85 C 98.6,102.2 295.8,186.6 493,171 C 690.2,155.4 788.8,13.6 986,7 C 1183.2,0.4 1380.4,111.8 1479,138L1479 1200L0 1200z"
      fill="rgba(96, 232, 53, 0)"
    /><path
      d="M 0,215 C 98.6,236.6 295.8,317 493,323 C 690.2,329 788.8,242.4 986,245 C 1183.2,247.6 1380.4,317.8 1479,336L1479 1200L0 1200z"
      fill="rgba(10, 67, 92, 0)"
    /><path
      d="M 0,361 C 98.6,377.2 295.8,430.6 493,442 C 690.2,453.4 788.8,414.6 986,418 C 1183.2,421.4 1380.4,450.8 1479,459L1479 1200L0 1200z"
      fill="rgba(73, 192, 65, 0)"
    /><path
      d="M 0,577 C 98.6,588.2 295.8,641.4 493,633 C 690.2,624.6 788.8,526.8 986,535 C 1183.2,543.2 1380.4,646.2 1479,674L1479 1200L0 1200z"
      fill="rgba(172, 29, 14, 0)"
    /><path
      d="M 0,822 C 98.6,801.2 295.8,711.6 493,718 C 690.2,724.4 788.8,847.2 986,854 C 1183.2,860.8 1380.4,772.4 1479,752L1479 1200L0 1200z"
      fill="rgba(233, 213, 210, 0.65)"
    /><path
      d="M 0,929 C 59.2,945.6 177.6,1013.4 296,1012 C 414.4,1010.6 473.6,929.8 592,922 C 710.4,914.2 769.6,977.8 888,973 C 1006.4,968.2 1065.8,892.2 1184,898 C 1302.2,903.8 1420,981.2 1479,1002L1479 1200L0 1200z"
      fill="rgba(110, 131, 125, 0.83)"
    /><path
      d="M 0,1147 C 42.4,1131.2 127.2,1066.2 212,1068 C 296.8,1069.8 339.2,1154 424,1156 C 508.8,1158 551.2,1070.6 636,1078 C 720.8,1085.4 763.2,1200 848,1193 C 932.8,1186 975.2,1052.8 1060,1043 C 1144.8,1033.2 1188.2,1146.8 1272,1144 C 1355.8,1141.2 1437.6,1052 1479,1029L1479 1200L0 1200z"
      fill="rgba(58, 163, 130, 0.82)"
    /></g><defs><mask id="SvgjsMask1181"><rect
        width="1479"
        height="1200"
        fill="#ffffff"
      /></mask></defs></svg>
